<mxfile host="app.diagrams.net" modified="2023-11-24T16:52:30.751Z" agent="Mozilla/5.0 (Windows NT 10.0; Win64; x64; rv:120.0) Gecko/20100101 Firefox/120.0" etag="1hYC2IVt4jjTLjGzPOUf" version="22.1.3" type="github">
  <diagram id="C5RBs43oDa-KdzZeNtuy" name="Page-1">
    <mxGraphModel dx="2342" dy="916" grid="1" gridSize="10" guides="1" tooltips="1" connect="1" arrows="1" fold="1" page="1" pageScale="1" pageWidth="827" pageHeight="1169" math="0" shadow="0">
      <root>
        <mxCell id="WIyWlLk6GJQsqaUBKTNV-0" />
        <mxCell id="WIyWlLk6GJQsqaUBKTNV-1" parent="WIyWlLk6GJQsqaUBKTNV-0" />
        <mxCell id="PpnzUT1_5QEgfYQbQOux-93" style="edgeStyle=orthogonalEdgeStyle;rounded=0;orthogonalLoop=1;jettySize=auto;html=1;" edge="1" parent="WIyWlLk6GJQsqaUBKTNV-1" source="PpnzUT1_5QEgfYQbQOux-63">
          <mxGeometry relative="1" as="geometry">
            <mxPoint x="220.00000000000045" y="920.0000000000002" as="targetPoint" />
          </mxGeometry>
        </mxCell>
        <mxCell id="PpnzUT1_5QEgfYQbQOux-109" style="edgeStyle=orthogonalEdgeStyle;rounded=0;orthogonalLoop=1;jettySize=auto;html=1;" edge="1" parent="WIyWlLk6GJQsqaUBKTNV-1" source="PpnzUT1_5QEgfYQbQOux-63">
          <mxGeometry relative="1" as="geometry">
            <mxPoint x="215" y="980.0000000000002" as="targetPoint" />
          </mxGeometry>
        </mxCell>
        <mxCell id="PpnzUT1_5QEgfYQbQOux-63" value="" style="rounded=0;whiteSpace=wrap;html=1;fillColor=#dae8fc;strokeColor=#6c8ebf;" vertex="1" parent="WIyWlLk6GJQsqaUBKTNV-1">
          <mxGeometry x="10" y="350" width="510" height="660" as="geometry" />
        </mxCell>
        <mxCell id="PpnzUT1_5QEgfYQbQOux-27" style="edgeStyle=orthogonalEdgeStyle;rounded=0;orthogonalLoop=1;jettySize=auto;html=1;exitX=1;exitY=0.75;exitDx=0;exitDy=0;entryX=0;entryY=0.25;entryDx=0;entryDy=0;" edge="1" parent="WIyWlLk6GJQsqaUBKTNV-1" source="PpnzUT1_5QEgfYQbQOux-18" target="PpnzUT1_5QEgfYQbQOux-25">
          <mxGeometry relative="1" as="geometry">
            <Array as="points">
              <mxPoint x="-590" y="380" />
              <mxPoint x="-525" y="380" />
              <mxPoint x="-525" y="378" />
            </Array>
          </mxGeometry>
        </mxCell>
        <mxCell id="PpnzUT1_5QEgfYQbQOux-18" value="" style="whiteSpace=wrap;html=1;aspect=fixed;fillColor=#d5e8d4;strokeColor=#82b366;" vertex="1" parent="WIyWlLk6GJQsqaUBKTNV-1">
          <mxGeometry x="-650" y="290" width="150" height="150" as="geometry" />
        </mxCell>
        <mxCell id="PpnzUT1_5QEgfYQbQOux-2" style="edgeStyle=orthogonalEdgeStyle;rounded=0;orthogonalLoop=1;jettySize=auto;html=1;" edge="1" parent="WIyWlLk6GJQsqaUBKTNV-1" source="4-b9_ulazWs0U883Xy_r-0" target="PpnzUT1_5QEgfYQbQOux-1">
          <mxGeometry relative="1" as="geometry" />
        </mxCell>
        <mxCell id="4-b9_ulazWs0U883Xy_r-0" value="&lt;div&gt;RTMP 2.0&lt;/div&gt;" style="rounded=0;whiteSpace=wrap;html=1;" parent="WIyWlLk6GJQsqaUBKTNV-1" vertex="1">
          <mxGeometry x="300" y="20" width="110" height="20" as="geometry" />
        </mxCell>
        <mxCell id="4-b9_ulazWs0U883Xy_r-6" value="" style="edgeStyle=orthogonalEdgeStyle;rounded=0;orthogonalLoop=1;jettySize=auto;html=1;" parent="WIyWlLk6GJQsqaUBKTNV-1" source="4-b9_ulazWs0U883Xy_r-3" target="4-b9_ulazWs0U883Xy_r-5" edge="1">
          <mxGeometry relative="1" as="geometry" />
        </mxCell>
        <mxCell id="PpnzUT1_5QEgfYQbQOux-58" style="edgeStyle=orthogonalEdgeStyle;rounded=0;orthogonalLoop=1;jettySize=auto;html=1;" edge="1" parent="WIyWlLk6GJQsqaUBKTNV-1" source="4-b9_ulazWs0U883Xy_r-3">
          <mxGeometry relative="1" as="geometry">
            <mxPoint x="-60" y="210" as="targetPoint" />
          </mxGeometry>
        </mxCell>
        <mxCell id="4-b9_ulazWs0U883Xy_r-3" value="QGIS" style="rhombus;whiteSpace=wrap;html=1;rounded=0;" parent="WIyWlLk6GJQsqaUBKTNV-1" vertex="1">
          <mxGeometry x="30" y="170" width="80" height="80" as="geometry" />
        </mxCell>
        <mxCell id="4-b9_ulazWs0U883Xy_r-5" value="DTM&lt;br&gt;TXTRN&lt;br&gt;&lt;div&gt;GEOLAYER&lt;/div&gt;&lt;div&gt;GIS DATA A&lt;/div&gt;" style="whiteSpace=wrap;html=1;rounded=0;" parent="WIyWlLk6GJQsqaUBKTNV-1" vertex="1">
          <mxGeometry x="10" y="270" width="120" height="60" as="geometry" />
        </mxCell>
        <mxCell id="PpnzUT1_5QEgfYQbQOux-3" style="edgeStyle=orthogonalEdgeStyle;rounded=0;orthogonalLoop=1;jettySize=auto;html=1;entryX=0.5;entryY=0;entryDx=0;entryDy=0;" edge="1" parent="WIyWlLk6GJQsqaUBKTNV-1" source="PpnzUT1_5QEgfYQbQOux-1" target="4-b9_ulazWs0U883Xy_r-3">
          <mxGeometry relative="1" as="geometry" />
        </mxCell>
        <mxCell id="PpnzUT1_5QEgfYQbQOux-5" style="edgeStyle=orthogonalEdgeStyle;rounded=0;orthogonalLoop=1;jettySize=auto;html=1;" edge="1" parent="WIyWlLk6GJQsqaUBKTNV-1" source="PpnzUT1_5QEgfYQbQOux-1" target="PpnzUT1_5QEgfYQbQOux-4">
          <mxGeometry relative="1" as="geometry" />
        </mxCell>
        <mxCell id="PpnzUT1_5QEgfYQbQOux-1" value="SFTWR" style="triangle;whiteSpace=wrap;html=1;" vertex="1" parent="WIyWlLk6GJQsqaUBKTNV-1">
          <mxGeometry x="170" y="110" width="60" height="80" as="geometry" />
        </mxCell>
        <mxCell id="PpnzUT1_5QEgfYQbQOux-35" value="" style="edgeStyle=orthogonalEdgeStyle;rounded=0;orthogonalLoop=1;jettySize=auto;html=1;" edge="1" parent="WIyWlLk6GJQsqaUBKTNV-1" source="PpnzUT1_5QEgfYQbQOux-4" target="PpnzUT1_5QEgfYQbQOux-34">
          <mxGeometry relative="1" as="geometry" />
        </mxCell>
        <mxCell id="PpnzUT1_5QEgfYQbQOux-4" value="&lt;div&gt;UE&lt;/div&gt;" style="rhombus;whiteSpace=wrap;html=1;rounded=0;" vertex="1" parent="WIyWlLk6GJQsqaUBKTNV-1">
          <mxGeometry x="160" y="240" width="80" height="80" as="geometry" />
        </mxCell>
        <mxCell id="PpnzUT1_5QEgfYQbQOux-13" style="edgeStyle=orthogonalEdgeStyle;rounded=0;orthogonalLoop=1;jettySize=auto;html=1;entryX=0.5;entryY=0;entryDx=0;entryDy=0;" edge="1" parent="WIyWlLk6GJQsqaUBKTNV-1" source="PpnzUT1_5QEgfYQbQOux-6" target="PpnzUT1_5QEgfYQbQOux-12">
          <mxGeometry relative="1" as="geometry" />
        </mxCell>
        <mxCell id="PpnzUT1_5QEgfYQbQOux-60" style="edgeStyle=orthogonalEdgeStyle;rounded=0;orthogonalLoop=1;jettySize=auto;html=1;" edge="1" parent="WIyWlLk6GJQsqaUBKTNV-1" source="PpnzUT1_5QEgfYQbQOux-6">
          <mxGeometry relative="1" as="geometry">
            <mxPoint x="-180" y="210" as="targetPoint" />
          </mxGeometry>
        </mxCell>
        <mxCell id="PpnzUT1_5QEgfYQbQOux-6" value="&lt;div&gt;BCKend&lt;/div&gt;" style="rhombus;whiteSpace=wrap;html=1;rounded=0;" vertex="1" parent="WIyWlLk6GJQsqaUBKTNV-1">
          <mxGeometry x="-340" y="170" width="80" height="80" as="geometry" />
        </mxCell>
        <mxCell id="PpnzUT1_5QEgfYQbQOux-21" value="" style="edgeStyle=orthogonalEdgeStyle;rounded=0;orthogonalLoop=1;jettySize=auto;html=1;" edge="1" parent="WIyWlLk6GJQsqaUBKTNV-1" source="PpnzUT1_5QEgfYQbQOux-12" target="PpnzUT1_5QEgfYQbQOux-20">
          <mxGeometry relative="1" as="geometry" />
        </mxCell>
        <mxCell id="PpnzUT1_5QEgfYQbQOux-31" value="" style="edgeStyle=orthogonalEdgeStyle;rounded=0;orthogonalLoop=1;jettySize=auto;html=1;" edge="1" parent="WIyWlLk6GJQsqaUBKTNV-1" source="PpnzUT1_5QEgfYQbQOux-12" target="PpnzUT1_5QEgfYQbQOux-30">
          <mxGeometry relative="1" as="geometry" />
        </mxCell>
        <mxCell id="PpnzUT1_5QEgfYQbQOux-12" value="&lt;div&gt;SRVR&lt;/div&gt;" style="shape=datastore;whiteSpace=wrap;html=1;" vertex="1" parent="WIyWlLk6GJQsqaUBKTNV-1">
          <mxGeometry x="-330" y="315" width="60" height="60" as="geometry" />
        </mxCell>
        <mxCell id="PpnzUT1_5QEgfYQbQOux-14" value="CSTM" style="whiteSpace=wrap;html=1;" vertex="1" parent="WIyWlLk6GJQsqaUBKTNV-1">
          <mxGeometry x="-610" y="320" width="70" height="30" as="geometry" />
        </mxCell>
        <mxCell id="PpnzUT1_5QEgfYQbQOux-16" value="ODH" style="whiteSpace=wrap;html=1;" vertex="1" parent="WIyWlLk6GJQsqaUBKTNV-1">
          <mxGeometry x="-610" y="360" width="70" height="30" as="geometry" />
        </mxCell>
        <mxCell id="PpnzUT1_5QEgfYQbQOux-17" value="&lt;div&gt;LTS&lt;/div&gt;" style="whiteSpace=wrap;html=1;" vertex="1" parent="WIyWlLk6GJQsqaUBKTNV-1">
          <mxGeometry x="-610" y="400" width="70" height="30" as="geometry" />
        </mxCell>
        <mxCell id="PpnzUT1_5QEgfYQbQOux-19" value="&lt;div&gt;HTTP&lt;/div&gt;" style="whiteSpace=wrap;html=1;aspect=fixed;fillColor=#d5e8d4;strokeColor=#82b366;" vertex="1" parent="WIyWlLk6GJQsqaUBKTNV-1">
          <mxGeometry x="-597.5" y="270" width="45" height="45" as="geometry" />
        </mxCell>
        <mxCell id="PpnzUT1_5QEgfYQbQOux-20" value="REQ" style="whiteSpace=wrap;html=1;" vertex="1" parent="WIyWlLk6GJQsqaUBKTNV-1">
          <mxGeometry x="-460" y="320" width="70" height="30" as="geometry" />
        </mxCell>
        <mxCell id="PpnzUT1_5QEgfYQbQOux-25" value="RSP" style="whiteSpace=wrap;html=1;fontStyle=1" vertex="1" parent="WIyWlLk6GJQsqaUBKTNV-1">
          <mxGeometry x="-460" y="370" width="70" height="30" as="geometry" />
        </mxCell>
        <mxCell id="PpnzUT1_5QEgfYQbQOux-26" style="edgeStyle=orthogonalEdgeStyle;rounded=0;orthogonalLoop=1;jettySize=auto;html=1;entryX=0.987;entryY=0.327;entryDx=0;entryDy=0;entryPerimeter=0;" edge="1" parent="WIyWlLk6GJQsqaUBKTNV-1" source="PpnzUT1_5QEgfYQbQOux-20" target="PpnzUT1_5QEgfYQbQOux-18">
          <mxGeometry relative="1" as="geometry" />
        </mxCell>
        <mxCell id="PpnzUT1_5QEgfYQbQOux-28" style="edgeStyle=orthogonalEdgeStyle;rounded=0;orthogonalLoop=1;jettySize=auto;html=1;entryX=-0.033;entryY=0.817;entryDx=0;entryDy=0;entryPerimeter=0;" edge="1" parent="WIyWlLk6GJQsqaUBKTNV-1" source="PpnzUT1_5QEgfYQbQOux-25" target="PpnzUT1_5QEgfYQbQOux-12">
          <mxGeometry relative="1" as="geometry" />
        </mxCell>
        <mxCell id="PpnzUT1_5QEgfYQbQOux-44" value="" style="edgeStyle=orthogonalEdgeStyle;rounded=0;orthogonalLoop=1;jettySize=auto;html=1;" edge="1" parent="WIyWlLk6GJQsqaUBKTNV-1" source="PpnzUT1_5QEgfYQbQOux-30" target="PpnzUT1_5QEgfYQbQOux-43">
          <mxGeometry relative="1" as="geometry" />
        </mxCell>
        <mxCell id="PpnzUT1_5QEgfYQbQOux-30" value="SORT&lt;br&gt;FILTER&lt;br&gt;CONVERT&lt;br&gt;HOST" style="whiteSpace=wrap;html=1;" vertex="1" parent="WIyWlLk6GJQsqaUBKTNV-1">
          <mxGeometry x="-360" y="410" width="120" height="60" as="geometry" />
        </mxCell>
        <mxCell id="PpnzUT1_5QEgfYQbQOux-54" style="edgeStyle=orthogonalEdgeStyle;rounded=0;orthogonalLoop=1;jettySize=auto;html=1;entryX=0.5;entryY=0;entryDx=0;entryDy=0;" edge="1" parent="WIyWlLk6GJQsqaUBKTNV-1" source="PpnzUT1_5QEgfYQbQOux-34" target="PpnzUT1_5QEgfYQbQOux-40">
          <mxGeometry relative="1" as="geometry" />
        </mxCell>
        <mxCell id="PpnzUT1_5QEgfYQbQOux-34" value="BPS&lt;br&gt;" style="whiteSpace=wrap;html=1;rounded=0;" vertex="1" parent="WIyWlLk6GJQsqaUBKTNV-1">
          <mxGeometry x="155" y="380" width="90" height="30" as="geometry" />
        </mxCell>
        <mxCell id="PpnzUT1_5QEgfYQbQOux-38" value="LANDSCAPE MOD&lt;br&gt;&lt;div&gt;+ Textures&lt;/div&gt;" style="shape=hexagon;perimeter=hexagonPerimeter2;whiteSpace=wrap;html=1;fixedSize=1;" vertex="1" parent="WIyWlLk6GJQsqaUBKTNV-1">
          <mxGeometry x="40" y="890" width="100" height="80" as="geometry" />
        </mxCell>
        <mxCell id="PpnzUT1_5QEgfYQbQOux-39" style="edgeStyle=orthogonalEdgeStyle;rounded=0;orthogonalLoop=1;jettySize=auto;html=1;entryX=0.32;entryY=-0.05;entryDx=0;entryDy=0;entryPerimeter=0;" edge="1" parent="WIyWlLk6GJQsqaUBKTNV-1" source="4-b9_ulazWs0U883Xy_r-5" target="PpnzUT1_5QEgfYQbQOux-38">
          <mxGeometry relative="1" as="geometry" />
        </mxCell>
        <mxCell id="PpnzUT1_5QEgfYQbQOux-66" style="edgeStyle=orthogonalEdgeStyle;rounded=0;orthogonalLoop=1;jettySize=auto;html=1;entryX=0.5;entryY=0;entryDx=0;entryDy=0;" edge="1" parent="WIyWlLk6GJQsqaUBKTNV-1" source="PpnzUT1_5QEgfYQbQOux-40" target="PpnzUT1_5QEgfYQbQOux-41">
          <mxGeometry relative="1" as="geometry">
            <mxPoint x="100" y="505" as="targetPoint" />
          </mxGeometry>
        </mxCell>
        <mxCell id="PpnzUT1_5QEgfYQbQOux-67" style="edgeStyle=orthogonalEdgeStyle;rounded=0;orthogonalLoop=1;jettySize=auto;html=1;" edge="1" parent="WIyWlLk6GJQsqaUBKTNV-1" source="PpnzUT1_5QEgfYQbQOux-40" target="PpnzUT1_5QEgfYQbQOux-64">
          <mxGeometry relative="1" as="geometry" />
        </mxCell>
        <mxCell id="PpnzUT1_5QEgfYQbQOux-68" style="edgeStyle=orthogonalEdgeStyle;rounded=0;orthogonalLoop=1;jettySize=auto;html=1;" edge="1" parent="WIyWlLk6GJQsqaUBKTNV-1">
          <mxGeometry relative="1" as="geometry">
            <mxPoint x="199.99999999999955" y="534.9999999999998" as="sourcePoint" />
            <mxPoint x="354.99999999999955" y="655.0000000000002" as="targetPoint" />
            <Array as="points">
              <mxPoint x="200" y="570" />
              <mxPoint x="355" y="570" />
            </Array>
          </mxGeometry>
        </mxCell>
        <mxCell id="PpnzUT1_5QEgfYQbQOux-40" value="&lt;div&gt;GMM&lt;/div&gt;" style="shape=hexagon;perimeter=hexagonPerimeter2;whiteSpace=wrap;html=1;fixedSize=1;" vertex="1" parent="WIyWlLk6GJQsqaUBKTNV-1">
          <mxGeometry x="150" y="465" width="100" height="80" as="geometry" />
        </mxCell>
        <mxCell id="PpnzUT1_5QEgfYQbQOux-71" style="edgeStyle=orthogonalEdgeStyle;rounded=0;orthogonalLoop=1;jettySize=auto;html=1;entryX=0.375;entryY=0;entryDx=0;entryDy=0;" edge="1" parent="WIyWlLk6GJQsqaUBKTNV-1" source="PpnzUT1_5QEgfYQbQOux-41" target="PpnzUT1_5QEgfYQbQOux-42">
          <mxGeometry relative="1" as="geometry" />
        </mxCell>
        <mxCell id="PpnzUT1_5QEgfYQbQOux-79" style="edgeStyle=orthogonalEdgeStyle;rounded=0;orthogonalLoop=1;jettySize=auto;html=1;entryX=1;entryY=0.5;entryDx=0;entryDy=0;" edge="1" parent="WIyWlLk6GJQsqaUBKTNV-1" source="PpnzUT1_5QEgfYQbQOux-41" target="PpnzUT1_5QEgfYQbQOux-75">
          <mxGeometry relative="1" as="geometry">
            <mxPoint x="-60" y="549.9999999999998" as="targetPoint" />
            <Array as="points">
              <mxPoint x="40" y="630" />
              <mxPoint x="40" y="550" />
            </Array>
          </mxGeometry>
        </mxCell>
        <mxCell id="PpnzUT1_5QEgfYQbQOux-41" value="&lt;div&gt;JSN-Ctrl&lt;/div&gt;&lt;div&gt;&lt;br&gt;&lt;/div&gt;" style="shape=hexagon;perimeter=hexagonPerimeter2;whiteSpace=wrap;html=1;fixedSize=1;" vertex="1" parent="WIyWlLk6GJQsqaUBKTNV-1">
          <mxGeometry x="90" y="590" width="100" height="80" as="geometry" />
        </mxCell>
        <mxCell id="PpnzUT1_5QEgfYQbQOux-97" value="" style="edgeStyle=orthogonalEdgeStyle;rounded=0;orthogonalLoop=1;jettySize=auto;html=1;" edge="1" parent="WIyWlLk6GJQsqaUBKTNV-1" source="PpnzUT1_5QEgfYQbQOux-42" target="PpnzUT1_5QEgfYQbQOux-96">
          <mxGeometry relative="1" as="geometry" />
        </mxCell>
        <mxCell id="PpnzUT1_5QEgfYQbQOux-107" style="edgeStyle=orthogonalEdgeStyle;rounded=0;orthogonalLoop=1;jettySize=auto;html=1;" edge="1" parent="WIyWlLk6GJQsqaUBKTNV-1" source="PpnzUT1_5QEgfYQbQOux-42" target="PpnzUT1_5QEgfYQbQOux-103">
          <mxGeometry relative="1" as="geometry" />
        </mxCell>
        <mxCell id="PpnzUT1_5QEgfYQbQOux-42" value="&lt;div&gt;HUD&lt;/div&gt;" style="shape=hexagon;perimeter=hexagonPerimeter2;whiteSpace=wrap;html=1;fixedSize=1;" vertex="1" parent="WIyWlLk6GJQsqaUBKTNV-1">
          <mxGeometry x="305" y="650" width="100" height="80" as="geometry" />
        </mxCell>
        <mxCell id="PpnzUT1_5QEgfYQbQOux-77" style="edgeStyle=orthogonalEdgeStyle;rounded=0;orthogonalLoop=1;jettySize=auto;html=1;" edge="1" parent="WIyWlLk6GJQsqaUBKTNV-1" source="PpnzUT1_5QEgfYQbQOux-43">
          <mxGeometry relative="1" as="geometry">
            <mxPoint x="-170" y="589.9999999999998" as="targetPoint" />
          </mxGeometry>
        </mxCell>
        <mxCell id="PpnzUT1_5QEgfYQbQOux-43" value="ERT&lt;br&gt;API" style="whiteSpace=wrap;html=1;" vertex="1" parent="WIyWlLk6GJQsqaUBKTNV-1">
          <mxGeometry x="-345" y="550" width="90" height="40" as="geometry" />
        </mxCell>
        <mxCell id="PpnzUT1_5QEgfYQbQOux-59" style="edgeStyle=orthogonalEdgeStyle;rounded=0;orthogonalLoop=1;jettySize=auto;html=1;" edge="1" parent="WIyWlLk6GJQsqaUBKTNV-1" source="PpnzUT1_5QEgfYQbQOux-56">
          <mxGeometry relative="1" as="geometry">
            <mxPoint x="-230" y="185" as="targetPoint" />
          </mxGeometry>
        </mxCell>
        <mxCell id="PpnzUT1_5QEgfYQbQOux-61" style="edgeStyle=orthogonalEdgeStyle;rounded=0;orthogonalLoop=1;jettySize=auto;html=1;" edge="1" parent="WIyWlLk6GJQsqaUBKTNV-1" source="PpnzUT1_5QEgfYQbQOux-56">
          <mxGeometry relative="1" as="geometry">
            <mxPoint x="-20" y="180" as="targetPoint" />
          </mxGeometry>
        </mxCell>
        <mxCell id="PpnzUT1_5QEgfYQbQOux-56" value="REQ" style="whiteSpace=wrap;html=1;" vertex="1" parent="WIyWlLk6GJQsqaUBKTNV-1">
          <mxGeometry x="-160" y="160" width="70" height="30" as="geometry" />
        </mxCell>
        <mxCell id="PpnzUT1_5QEgfYQbQOux-57" value="RSP" style="whiteSpace=wrap;html=1;fontStyle=1" vertex="1" parent="WIyWlLk6GJQsqaUBKTNV-1">
          <mxGeometry x="-160" y="200" width="70" height="30" as="geometry" />
        </mxCell>
        <mxCell id="PpnzUT1_5QEgfYQbQOux-69" style="edgeStyle=orthogonalEdgeStyle;rounded=0;orthogonalLoop=1;jettySize=auto;html=1;" edge="1" parent="WIyWlLk6GJQsqaUBKTNV-1" source="PpnzUT1_5QEgfYQbQOux-64" target="PpnzUT1_5QEgfYQbQOux-42">
          <mxGeometry relative="1" as="geometry" />
        </mxCell>
        <mxCell id="PpnzUT1_5QEgfYQbQOux-72" value="" style="edgeStyle=orthogonalEdgeStyle;rounded=0;orthogonalLoop=1;jettySize=auto;html=1;" edge="1" parent="WIyWlLk6GJQsqaUBKTNV-1" source="PpnzUT1_5QEgfYQbQOux-42" target="PpnzUT1_5QEgfYQbQOux-64">
          <mxGeometry relative="1" as="geometry">
            <mxPoint x="355" y="470.0000000000001" as="targetPoint" />
            <mxPoint x="355" y="645" as="sourcePoint" />
          </mxGeometry>
        </mxCell>
        <mxCell id="PpnzUT1_5QEgfYQbQOux-64" value="&lt;div&gt;PWN&lt;/div&gt;" style="shape=hexagon;perimeter=hexagonPerimeter2;whiteSpace=wrap;html=1;fixedSize=1;" vertex="1" parent="WIyWlLk6GJQsqaUBKTNV-1">
          <mxGeometry x="305" y="455" width="100" height="80" as="geometry" />
        </mxCell>
        <mxCell id="PpnzUT1_5QEgfYQbQOux-73" style="edgeStyle=orthogonalEdgeStyle;rounded=0;orthogonalLoop=1;jettySize=auto;html=1;" edge="1" parent="WIyWlLk6GJQsqaUBKTNV-1" source="PpnzUT1_5QEgfYQbQOux-75">
          <mxGeometry relative="1" as="geometry">
            <mxPoint x="-220" y="560" as="targetPoint" />
          </mxGeometry>
        </mxCell>
        <mxCell id="PpnzUT1_5QEgfYQbQOux-75" value="REQ" style="whiteSpace=wrap;html=1;" vertex="1" parent="WIyWlLk6GJQsqaUBKTNV-1">
          <mxGeometry x="-150" y="535" width="70" height="30" as="geometry" />
        </mxCell>
        <mxCell id="PpnzUT1_5QEgfYQbQOux-78" style="edgeStyle=orthogonalEdgeStyle;rounded=0;orthogonalLoop=1;jettySize=auto;html=1;entryX=0;entryY=0.5;entryDx=0;entryDy=0;" edge="1" parent="WIyWlLk6GJQsqaUBKTNV-1" source="PpnzUT1_5QEgfYQbQOux-76" target="PpnzUT1_5QEgfYQbQOux-41">
          <mxGeometry relative="1" as="geometry">
            <mxPoint x="-10" y="579.9999999999998" as="targetPoint" />
            <Array as="points">
              <mxPoint x="5" y="590" />
              <mxPoint x="5" y="630" />
            </Array>
          </mxGeometry>
        </mxCell>
        <mxCell id="PpnzUT1_5QEgfYQbQOux-76" value="RSP" style="whiteSpace=wrap;html=1;fontStyle=1" vertex="1" parent="WIyWlLk6GJQsqaUBKTNV-1">
          <mxGeometry x="-150" y="575" width="70" height="30" as="geometry" />
        </mxCell>
        <mxCell id="PpnzUT1_5QEgfYQbQOux-84" value="&lt;div&gt;RUN&lt;/div&gt;" style="html=1;shadow=0;dashed=0;align=center;verticalAlign=middle;shape=mxgraph.arrows2.arrow;dy=0.6;dx=40;direction=south;notch=0;" vertex="1" parent="WIyWlLk6GJQsqaUBKTNV-1">
          <mxGeometry x="460" y="360" width="230" height="40" as="geometry" />
        </mxCell>
        <mxCell id="PpnzUT1_5QEgfYQbQOux-86" value="SplashScreen" style="html=1;shadow=0;dashed=0;align=center;verticalAlign=middle;shape=mxgraph.arrows2.arrow;dy=0.6;dx=40;direction=south;notch=0;" vertex="1" parent="WIyWlLk6GJQsqaUBKTNV-1">
          <mxGeometry x="460" y="400" width="230" height="40" as="geometry" />
        </mxCell>
        <mxCell id="PpnzUT1_5QEgfYQbQOux-87" value="JSN_REQ" style="html=1;shadow=0;dashed=0;align=center;verticalAlign=middle;shape=mxgraph.arrows2.arrow;dy=0.6;dx=40;direction=south;notch=0;" vertex="1" parent="WIyWlLk6GJQsqaUBKTNV-1">
          <mxGeometry x="460" y="440" width="230" height="40" as="geometry" />
        </mxCell>
        <mxCell id="PpnzUT1_5QEgfYQbQOux-88" value="HUDBUILD" style="html=1;shadow=0;dashed=0;align=center;verticalAlign=middle;shape=mxgraph.arrows2.arrow;dy=0.6;dx=40;direction=south;notch=0;" vertex="1" parent="WIyWlLk6GJQsqaUBKTNV-1">
          <mxGeometry x="460" y="480" width="230" height="40" as="geometry" />
        </mxCell>
        <mxCell id="PpnzUT1_5QEgfYQbQOux-89" value="&lt;div&gt;Spawnandhide&lt;/div&gt;" style="html=1;shadow=0;dashed=0;align=center;verticalAlign=middle;shape=mxgraph.arrows2.arrow;dy=0.6;dx=40;direction=south;notch=0;" vertex="1" parent="WIyWlLk6GJQsqaUBKTNV-1">
          <mxGeometry x="460" y="520" width="230" height="40" as="geometry" />
        </mxCell>
        <mxCell id="PpnzUT1_5QEgfYQbQOux-98" style="edgeStyle=orthogonalEdgeStyle;rounded=0;orthogonalLoop=1;jettySize=auto;html=1;entryX=1;entryY=0.5;entryDx=0;entryDy=0;" edge="1" parent="WIyWlLk6GJQsqaUBKTNV-1" source="PpnzUT1_5QEgfYQbQOux-104" target="PpnzUT1_5QEgfYQbQOux-38">
          <mxGeometry relative="1" as="geometry" />
        </mxCell>
        <mxCell id="PpnzUT1_5QEgfYQbQOux-96" value="&lt;div&gt;Spawnandhide&lt;/div&gt;" style="whiteSpace=wrap;html=1;" vertex="1" parent="WIyWlLk6GJQsqaUBKTNV-1">
          <mxGeometry x="310" y="760" width="90" height="30" as="geometry" />
        </mxCell>
        <mxCell id="PpnzUT1_5QEgfYQbQOux-108" style="edgeStyle=orthogonalEdgeStyle;rounded=0;orthogonalLoop=1;jettySize=auto;html=1;entryX=1;entryY=0.5;entryDx=0;entryDy=0;" edge="1" parent="WIyWlLk6GJQsqaUBKTNV-1" source="PpnzUT1_5QEgfYQbQOux-110" target="PpnzUT1_5QEgfYQbQOux-38">
          <mxGeometry relative="1" as="geometry" />
        </mxCell>
        <mxCell id="PpnzUT1_5QEgfYQbQOux-103" value="txtrs" style="whiteSpace=wrap;html=1;" vertex="1" parent="WIyWlLk6GJQsqaUBKTNV-1">
          <mxGeometry x="200" y="680" width="90" height="30" as="geometry" />
        </mxCell>
        <mxCell id="PpnzUT1_5QEgfYQbQOux-105" value="" style="edgeStyle=orthogonalEdgeStyle;rounded=0;orthogonalLoop=1;jettySize=auto;html=1;entryX=1;entryY=0.5;entryDx=0;entryDy=0;" edge="1" parent="WIyWlLk6GJQsqaUBKTNV-1" source="PpnzUT1_5QEgfYQbQOux-96" target="PpnzUT1_5QEgfYQbQOux-104">
          <mxGeometry relative="1" as="geometry">
            <mxPoint x="310" y="775" as="sourcePoint" />
            <mxPoint x="130" y="750" as="targetPoint" />
          </mxGeometry>
        </mxCell>
        <mxCell id="PpnzUT1_5QEgfYQbQOux-104" value="&lt;div&gt;Actors&lt;/div&gt;" style="whiteSpace=wrap;html=1;" vertex="1" parent="WIyWlLk6GJQsqaUBKTNV-1">
          <mxGeometry x="200" y="760" width="90" height="30" as="geometry" />
        </mxCell>
        <mxCell id="PpnzUT1_5QEgfYQbQOux-106" style="edgeStyle=orthogonalEdgeStyle;rounded=0;orthogonalLoop=1;jettySize=auto;html=1;exitX=0.25;exitY=1;exitDx=0;exitDy=0;entryX=0.5;entryY=1;entryDx=0;entryDy=0;" edge="1" parent="WIyWlLk6GJQsqaUBKTNV-1" source="PpnzUT1_5QEgfYQbQOux-103" target="PpnzUT1_5QEgfYQbQOux-103">
          <mxGeometry relative="1" as="geometry" />
        </mxCell>
        <mxCell id="PpnzUT1_5QEgfYQbQOux-111" value="" style="edgeStyle=orthogonalEdgeStyle;rounded=0;orthogonalLoop=1;jettySize=auto;html=1;entryX=1;entryY=0.5;entryDx=0;entryDy=0;" edge="1" parent="WIyWlLk6GJQsqaUBKTNV-1" source="PpnzUT1_5QEgfYQbQOux-103" target="PpnzUT1_5QEgfYQbQOux-110">
          <mxGeometry relative="1" as="geometry">
            <mxPoint x="200" y="695" as="sourcePoint" />
            <mxPoint x="140" y="880" as="targetPoint" />
            <Array as="points">
              <mxPoint x="170" y="695" />
              <mxPoint x="170" y="850" />
            </Array>
          </mxGeometry>
        </mxCell>
        <mxCell id="PpnzUT1_5QEgfYQbQOux-110" value="&lt;div&gt;Ndisplay CLusTRER&lt;/div&gt;" style="shape=hexagon;perimeter=hexagonPerimeter2;whiteSpace=wrap;html=1;fixedSize=1;" vertex="1" parent="WIyWlLk6GJQsqaUBKTNV-1">
          <mxGeometry x="120" y="810" width="100" height="80" as="geometry" />
        </mxCell>
      </root>
    </mxGraphModel>
  </diagram>
</mxfile>
